<svg width="948" height="1080" viewBox="0 0 948 1080" fill="none" xmlns="http://www.w3.org/2000/svg">
<rect width="948" height="1080" transform="matrix(-1 0 0 1 948 0)" fill="#325058"/>
<g style="mix-blend-mode:color-burn" opacity="0.2">
<path d="M818.584 749.601L889.705 468.452L581.906 462.635L818.584 749.601Z" fill="#BFBFBF" stroke="white" stroke-width="2.42869" stroke-miterlimit="10"/>
<path d="M447.827 811.642L321.521 567.333L392.64 892.305L447.827 811.642Z" fill="#BFBFBF" stroke="white" stroke-width="2.42869" stroke-miterlimit="10"/>
<path d="M948 797.3L818.584 749.602L689.169 1009.03L948 797.3Z" fill="#89BF6B" stroke="white" stroke-width="2.42869" stroke-miterlimit="10"/>
<path d="M889.705 468.449L588.124 363.358L581.906 462.632L889.705 468.449Z" fill="#89BF6B" stroke="white" stroke-width="2.42869" stroke-miterlimit="10"/>
<path d="M818.585 749.601L581.906 462.635L447.828 811.648L818.585 749.601Z" fill="#325058" stroke="white" stroke-width="2.42869" stroke-miterlimit="10"/>
<path d="M588.125 363.358L581.906 462.632L321.521 567.336L588.125 363.358Z" fill="#325058" stroke="white" stroke-width="2.42869" stroke-miterlimit="10"/>
<path d="M889.705 468.448L818.584 749.597L948 797.295L889.705 468.448Z" fill="#58A0A3" stroke="white" stroke-width="2.42869" stroke-miterlimit="10"/>
<path d="M447.44 809.318L323.073 568.112L579.964 464.572L447.44 809.318Z" fill="#58A0A3" stroke="white" stroke-width="2.42869" stroke-miterlimit="10"/>
<path d="M818.585 749.602L689.169 1009.03L447.828 811.648L818.585 749.602Z" fill="#58A0A3" stroke="white" stroke-width="2.42869" stroke-miterlimit="10"/>
<path d="M689.169 1009.03L447.827 811.648L392.64 892.308L689.169 1009.03Z" fill="#89BF6B" stroke="white" stroke-width="2.42869" stroke-miterlimit="10"/>
</g>
<g style="mix-blend-mode:color-burn" opacity="0.2">
<path d="M179.536 338.714L328.424 369.861L325.398 211.898L179.536 338.714Z" fill="#BFBFBF" stroke="white" stroke-width="2.42869" stroke-miterlimit="10"/>
<path d="M139.67 149.748L265.334 80.3442L96.2666 122.974L139.67 149.748Z" fill="#BFBFBF" stroke="white" stroke-width="2.42869" stroke-miterlimit="10"/>
<path d="M157.07 405.988L179.536 338.714L40.8894 277.26L157.07 405.988Z" fill="#89BF6B" stroke="white" stroke-width="2.42869" stroke-miterlimit="10"/>
<path d="M328.426 369.861L377.599 213.206L325.399 211.898L328.426 369.861Z" fill="#89BF6B" stroke="white" stroke-width="2.42869" stroke-miterlimit="10"/>
<path d="M179.536 338.714L325.398 211.898L139.667 149.749L179.536 338.714Z" fill="#325058" stroke="white" stroke-width="2.42869" stroke-miterlimit="10"/>
<path d="M377.599 213.206L325.399 211.898L265.333 80.3443L377.599 213.206Z" fill="#325058" stroke="white" stroke-width="2.42869" stroke-miterlimit="10"/>
<path d="M328.426 369.861L179.538 338.714L157.072 405.988L328.426 369.861Z" fill="#58A0A3" stroke="white" stroke-width="2.42869" stroke-miterlimit="10"/>
<path d="M140.882 149.506L264.957 81.1552L324.344 210.938L140.882 149.506Z" fill="#58A0A3" stroke="white" stroke-width="2.42869" stroke-miterlimit="10"/>
<path d="M179.536 338.714L40.8894 277.259L139.667 149.749L179.536 338.714Z" fill="#58A0A3" stroke="white" stroke-width="2.42869" stroke-miterlimit="10"/>
<path d="M40.8898 277.259L139.667 149.748L96.2653 122.974L40.8898 277.259Z" fill="#89BF6B" stroke="white" stroke-width="2.42869" stroke-miterlimit="10"/>
</g>
</svg>
