<svg width="79" height="25" viewBox="0 0 79 25" fill="none" xmlns="http://www.w3.org/2000/svg">
<path d="M5.19421 24.5864H0.433972V0.785228H5.19421V24.5864ZM13.3626 12.7198H25.2292V5.54547H13.3626V12.7198ZM13.3626 24.5864H8.60235V0.785228H27.6093L29.9554 3.19935V15.0999L27.6093 17.4801H13.3626V24.5864ZM52.0148 24.5864H35.354L33.0079 22.2403V17.4801H37.7681V19.8262H49.6347V15.0999H35.354L33.0079 13.3999V3.19935L35.354 0.785228H52.0148L54.3609 3.19935V7.92559H49.6347V5.54547H37.7681V10.3057H52.0148L54.3609 12.6858V22.2403L52.0148 24.5864ZM69.8161 24.5864H65.0558V5.54547H56.7254V0.785228H78.0785V5.54547H69.8161V24.5864Z" fill="#1A1A1A"/>
</svg>
