<svg width="85" height="87" viewBox="0 0 85 87" fill="none" xmlns="http://www.w3.org/2000/svg">
<g id="Group 8">
<path id="Vector" d="M17.8351 50.258L9.40771 15.8587L45.8803 15.147L17.8351 50.258Z" fill="#BFBFBF" stroke="white" stroke-width="2.42869" stroke-miterlimit="10"/>
<path id="Vector_2" d="M61.7681 57.8489L76.7347 27.957L68.3074 67.7182L61.7681 57.8489Z" fill="#BFBFBF" stroke="white" stroke-width="2.42869" stroke-miterlimit="10"/>
<path id="Vector_3" d="M2.5 56.0938L17.8351 50.2578L33.1702 81.9999L2.5 56.0938Z" fill="#89BF6B" stroke="white" stroke-width="2.42869" stroke-miterlimit="10"/>
<path id="Vector_4" d="M9.40771 15.8582L45.1435 3L45.8803 15.1465L9.40771 15.8582Z" fill="#89BF6B" stroke="white" stroke-width="2.42869" stroke-miterlimit="10"/>
<path id="Vector_5" d="M17.835 50.258L45.8802 15.147L61.7679 57.8496L17.835 50.258Z" fill="#325058" stroke="white" stroke-width="2.42869" stroke-miterlimit="10"/>
<path id="Vector_6" d="M45.1436 3L45.8804 15.1465L76.7347 27.9573L45.1436 3Z" fill="#325058" stroke="white" stroke-width="2.42869" stroke-miterlimit="10"/>
<path id="Vector_7" d="M9.4077 15.8584L17.8351 50.2577L2.5 56.0937L9.4077 15.8584Z" fill="#58A0A3" stroke="white" stroke-width="2.42869" stroke-miterlimit="10"/>
<path id="Vector_8" d="M61.8138 57.5645L76.5506 28.0522L46.1104 15.3838L61.8138 57.5645Z" fill="#58A0A3" stroke="white" stroke-width="2.42869" stroke-miterlimit="10"/>
<path id="Vector_9" d="M17.835 50.2578L33.1701 81.9999L61.7679 57.8493L17.835 50.2578Z" fill="#58A0A3" stroke="white" stroke-width="2.42869" stroke-miterlimit="10"/>
<path id="Vector_10" d="M33.1699 82.0001L61.7678 57.8496L68.3071 67.7186L33.1699 82.0001Z" fill="#89BF6B" stroke="white" stroke-width="2.42869" stroke-miterlimit="10"/>
</g>
</svg>
