<svg width="40" height="40" viewBox="0 0 40 40" fill="none" xmlns="http://www.w3.org/2000/svg">
<rect width="40" height="40" rx="20" fill="#D9D9D9"/>
<g clip-path="url(#clip0_102_147)">
<path fill-rule="evenodd" clip-rule="evenodd" d="M28.9784 23.8445L23.6759 9.46742L33.9769 13.7832L28.9784 23.8445ZM35.6752 12.6763C35.6847 12.6838 35.694 12.6915 35.7031 12.6993C35.831 12.8092 35.9195 12.9504 35.9649 13.1033C35.9925 13.1955 36.0046 13.293 35.9993 13.3921C35.9969 13.4405 35.9902 13.4888 35.9794 13.5366L32.4479 30.3428C32.4421 30.3725 32.4348 30.4019 32.4257 30.4311C32.3503 30.6749 32.1698 30.8722 31.9338 30.9689L17.1858 37.0132C16.8765 37.1399 16.5305 37.0726 16.2922 36.8587L3.4389 25.907C3.24247 25.7397 3.13402 25.4942 3.13883 25.2406C3.13782 25.1875 3.14175 25.1339 3.15088 25.0805L6.05006 8.09763C6.06242 8.01382 6.08713 7.93292 6.12281 7.85742C6.21196 7.66871 6.36951 7.51365 6.57339 7.43086C6.58459 7.42631 6.59589 7.422 6.60728 7.41791L21.5955 1.977C21.6063 1.97306 21.6172 1.96935 21.6282 1.96587C21.8964 1.88054 22.1935 1.93246 22.4185 2.11181L35.6752 12.6763ZM30.0947 29.4272L30.3275 29.7812L21.4859 33.4048L28.68 27.2745L30.0947 29.4272ZM32.9364 19.7154L31.1967 27.9947L29.845 25.9379L32.9364 19.7154ZM11.9168 23.9097L26.9247 26.5263L17.1533 34.8527L11.9168 23.9097ZM11.9915 22.1886L21.921 9.64401L27.548 24.9008L11.9915 22.1886ZM10.8479 20.8817L7.97559 9.05528L20.4024 8.81083L10.8479 20.8817ZM7.04071 12.4406L5.085 23.8968L9.42373 22.2524L7.04071 12.4406ZM22.8538 4.64265L23.0158 7.33884L29.8077 10.1843L22.8538 4.64265ZM21.1031 3.97303L21.29 7.08471L12.0294 7.26688L21.1031 3.97303ZM14.3507 32.9607L5.64561 25.5435L10.0009 23.8927L14.3507 32.9607Z" fill="black"/>
</g>
<defs>
<clipPath id="clip0_102_147">
<rect width="33" height="37" fill="white" transform="translate(3 1)"/>
</clipPath>
</defs>
</svg>
